<?xml version="1.0" standalone="no"?>
<!DOCTYPE svg PUBLIC "-//W3C//DTD SVG 20010904//EN"
 "http://www.w3.org/TR/2001/REC-SVG-20010904/DTD/svg10.dtd">
<svg version="1.0" xmlns="http://www.w3.org/2000/svg"
 width="300.000000pt" height="298.000000pt" viewBox="0 0 300.000000 298.000000"
 preserveAspectRatio="xMidYMid meet">
<metadata>
Created by potrace 1.10, written by Peter Selinger 2001-2011
</metadata>
<g transform="translate(0.000000,298.000000) scale(0.100000,-0.100000)"
fill="#000000" stroke="none">
<path d="M331 2546 c9 -8 120 -12 125 -4 3 4 -25 8 -62 8 -37 0 -65 -2 -63 -4z"/>
<path d="M250 2468 c0 -5 35 -9 78 -9 42 -1 118 -3 167 -4 59 -2 80 0 62 6
-16 4 -61 8 -100 9 -40 1 -102 2 -139 3 -38 1 -68 -1 -68 -5z"/>
<path d="M1322 2363 c-16 -6 -72 -120 -72 -145 0 -19 -25 -25 -35 -8 -12 19
-86 51 -105 45 -10 -3 -25 -21 -34 -39 -18 -38 -22 -121 -6 -131 6 -3 10 -17
10 -30 0 -42 78 -116 153 -144 39 -15 34 5 -5 23 -43 18 -101 73 -122 113 -17
34 -20 79 -10 132 8 36 27 40 95 16 49 -18 76 -10 95 28 6 12 21 41 33 65 l23
42 58 0 c96 0 109 -9 126 -94 6 -34 48 -86 69 -86 11 0 33 7 49 15 15 8 36 15
46 15 46 0 56 -71 22 -150 -24 -54 -54 -83 -104 -99 -43 -14 -88 -47 -88 -64
0 -7 5 -4 11 6 5 9 16 17 23 17 8 0 27 7 42 15 16 8 37 15 47 15 30 0 91 71
111 131 22 64 17 112 -15 153 -26 33 -34 33 -89 -4 -51 -34 -70 -37 -70 -12 0
9 -10 37 -21 62 -12 25 -24 58 -28 75 -6 25 -13 31 -46 37 -47 8 -144 9 -163
1z"/>
<path d="M2190 2259 c-30 -12 -42 -30 -30 -44 7 -9 -15 -12 -78 -14 -48 -1
-99 -7 -114 -14 -25 -11 -28 -17 -28 -64 0 -51 -1 -53 -37 -71 -21 -11 -51
-27 -68 -36 -16 -9 -36 -16 -42 -16 -7 0 -13 -4 -13 -10 0 -14 31 -12 60 4 14
8 39 22 57 31 40 21 58 50 61 95 3 45 19 56 94 64 46 6 63 4 69 -6 7 -10 12
-11 28 -1 17 11 23 9 40 -14 12 -14 21 -30 21 -35 0 -5 5 -6 11 -3 6 4 10 19
9 33 -3 43 -1 52 14 52 7 0 19 -7 26 -15 7 -9 19 -14 27 -11 28 11 11 -24 -22
-44 -32 -20 -55 -47 -55 -65 0 -13 54 26 82 58 l28 31 27 -20 c44 -33 73 -46
73 -34 0 5 -6 10 -13 10 -14 0 -83 67 -76 74 2 2 41 7 87 11 57 5 82 4 82 -4
0 -6 6 -11 13 -11 10 0 13 -13 11 -45 -2 -25 1 -45 6 -45 5 0 11 -8 15 -18 14
-47 87 -46 159 3 46 31 52 31 71 1 9 -14 34 -33 55 -44 22 -11 36 -23 32 -27
-4 -5 1 -5 10 -2 10 4 17 2 15 -4 -1 -6 21 -13 51 -16 47 -4 53 -2 50 13 -2
12 -19 21 -53 29 -27 6 -74 24 -102 38 l-53 27 0 61 c0 39 -4 58 -10 54 -6 -4
-8 -21 -4 -41 4 -22 2 -34 -5 -34 -6 0 -11 7 -11 15 0 8 -4 15 -10 15 -5 0
-10 11 -10 25 0 14 -4 25 -10 25 -5 0 -10 -25 -10 -56 l0 -55 -52 -23 c-82
-36 -108 -16 -108 86 l0 47 -53 6 c-30 4 -82 3 -117 -3 -55 -8 -63 -7 -67 8
-5 17 -56 40 -89 39 -10 0 -30 -5 -44 -10z"/>
<path d="M154 2126 c-3 -8 -1 -23 4 -33 5 -10 7 -23 5 -30 -2 -6 1 -14 6 -18
6 -3 9 0 6 7 -3 7 -1 19 4 27 8 12 14 13 36 3 14 -7 67 -13 118 -13 131 -2
149 -7 169 -51 22 -45 71 -70 130 -64 60 6 58 16 -4 16 -45 0 -60 5 -82 25
-15 14 -26 35 -26 50 0 38 -36 47 -173 44 -117 -3 -118 -3 -143 24 -28 30 -42
34 -50 13z"/>
<path d="M3 2075 c0 -33 2 -45 4 -27 2 18 2 45 0 60 -2 15 -4 0 -4 -33z"/>
<path d="M2172 2037 c-21 -10 -23 -16 -17 -51 7 -44 37 -96 68 -115 32 -21 31
-3 -2 35 -58 65 -65 107 -21 123 17 5 30 12 30 15 0 10 -33 5 -58 -7z"/>
<path d="M835 1919 c-38 -3 -83 -11 -100 -16 -21 -8 28 -9 170 -5 110 2 207 8
215 13 10 6 3 9 -25 10 -89 5 -194 4 -260 -2z"/>
<path d="M175 1909 c-53 -5 -49 -6 38 -7 61 -1 97 2 97 8 0 11 -17 11 -135 -1z"/>
<path d="M385 1900 c22 -4 49 -4 60 1 13 5 0 8 -40 7 -56 0 -58 -1 -20 -8z"/>
<path d="M2573 1882 c0 -26 4 -31 21 -29 12 1 20 -3 19 -9 -1 -5 7 -15 17 -21
14 -9 22 -8 36 3 18 15 18 15 -1 9 -15 -5 -28 4 -56 36 l-36 42 0 -31z"/>
<path d="M20 1870 c-19 -6 -12 -8 30 -9 39 0 51 2 40 9 -17 11 -35 11 -70 0z"/>
<path d="M1215 1831 c-81 -58 -108 -81 -102 -87 8 -8 88 29 112 52 21 20 49
64 43 68 -2 2 -26 -13 -53 -33z"/>
<path d="M2347 1853 c-4 -4 7 -12 25 -18 l33 -10 0 -78 c-1 -63 2 -77 15 -77
13 0 13 1 0 10 -12 8 -12 10 5 10 11 0 16 4 10 8 -5 4 -10 37 -10 74 -1 37 -3
69 -5 71 -10 10 -66 17 -73 10z"/>
<path d="M2266 1815 c4 -11 8 -35 8 -52 1 -22 6 -33 16 -33 10 0 11 -3 4 -8
-8 -5 -8 -14 -2 -32 l10 -25 9 30 c17 55 20 103 7 111 -8 5 -9 2 -5 -9 4 -11
1 -17 -8 -17 -8 0 -15 4 -15 8 0 5 -7 17 -16 28 -15 19 -16 19 -8 -1z"/>
<path d="M2707 1814 c3 -7 -2 -17 -11 -20 -15 -6 -14 -8 4 -21 17 -12 24 -13
33 -3 9 9 9 11 -2 8 -7 -2 -16 3 -18 10 -7 20 31 14 47 -7 14 -21 30 -19 30 2
0 7 -20 20 -44 29 -37 14 -44 14 -39 2z"/>
<path d="M1550 1786 c14 -13 80 -39 80 -31 0 7 -68 45 -81 45 -11 0 -10 -3 1
-14z"/>
<path d="M2797 1771 c-5 -21 8 -30 15 -10 2 7 11 7 30 -1 30 -14 47 -82 26
-107 -9 -12 -9 -16 3 -24 11 -7 9 -13 -13 -34 -16 -14 -28 -32 -28 -39 0 -20
-101 -86 -131 -86 -14 0 -30 -5 -37 -12 -9 -9 -12 -9 -12 0 0 7 -11 12 -25 12
-32 0 -32 -15 2 -46 26 -24 28 -24 40 -8 7 10 13 25 14 33 0 10 4 7 9 -6 12
-29 37 -30 45 -2 4 13 12 18 22 15 15 -6 43 15 43 32 0 6 10 8 21 5 16 -4 20
-2 17 8 -6 17 12 36 38 41 12 2 19 12 19 26 0 12 6 27 14 31 8 5 11 16 8 25
-4 9 -1 26 5 36 10 16 9 22 -7 34 -18 13 -18 15 -2 30 24 25 11 43 -36 49 -23
2 -49 8 -58 11 -11 5 -18 1 -22 -13z"/>
<path d="M276 1751 c-4 -5 -3 -16 0 -25 4 -11 1 -16 -12 -16 -9 0 -15 -3 -11
-6 3 -3 15 -3 27 1 17 5 19 9 9 21 -6 8 -9 17 -7 20 8 8 58 -7 58 -17 0 -5 7
-9 15 -9 24 0 17 14 -12 28 -32 14 -60 16 -67 3z"/>
<path d="M2037 1749 c-9 -6 -15 -14 -12 -20 10 -15 29 -10 43 11 14 23 0 27
-31 9z"/>
<path d="M1743 1735 c-16 -17 -16 -25 -2 -25 15 0 39 26 32 34 -9 9 -17 7 -30
-9z"/>
<path d="M475 1729 c-3 -3 5 -9 18 -13 31 -8 47 -7 47 3 0 11 -59 20 -65 10z"/>
<path d="M2786 1696 c-3 -12 -22 -39 -43 -61 l-38 -38 32 19 c18 10 40 33 48
51 17 34 39 46 29 16 -5 -15 -4 -16 5 -3 16 22 13 36 -8 37 -12 1 -21 -7 -25
-21z"/>
<path d="M2959 1700 c-13 -10 -21 -19 -17 -20 14 0 58 23 58 32 0 14 -16 9
-41 -12z"/>
<path d="M80 1696 c5 -5 29 -11 52 -12 35 -2 39 0 24 8 -26 15 -90 18 -76 4z"/>
<path d="M2845 1695 c-4 -11 -12 -33 -18 -50 -5 -16 -24 -42 -41 -57 -17 -16
-28 -28 -25 -28 12 0 78 57 73 63 -3 3 2 19 11 37 9 17 14 37 12 43 -3 7 -8 3
-12 -8z"/>
<path d="M600 1690 c0 -6 10 -8 24 -4 13 3 27 1 30 -5 4 -6 17 -11 29 -11 20
0 20 0 1 15 -22 16 -84 20 -84 5z"/>
<path d="M370 1664 c0 -8 13 -11 33 -10 44 4 47 5 47 14 0 4 -18 7 -40 7 -24
0 -40 -4 -40 -11z"/>
<path d="M540 1671 c-28 -5 -31 -8 -17 -14 22 -8 67 1 67 14 0 5 -3 8 -7 8 -5
-1 -24 -4 -43 -8z"/>
<path d="M2336 1648 c-15 -21 -15 -23 4 -30 20 -7 26 -28 13 -42 -10 -10 -13
-36 -3 -36 4 0 11 7 14 16 10 26 7 74 -5 74 -5 0 -7 5 -4 10 4 6 11 8 16 5 5
-4 9 1 9 9 0 23 -27 19 -44 -6z"/>
<path d="M2398 1630 c-5 -36 -3 -40 34 -40 15 0 28 -5 28 -11 0 -7 -14 -8 -41
-4 -29 5 -40 4 -35 -4 4 -6 20 -11 36 -11 16 0 32 -4 35 -10 3 -5 1 -10 -6
-10 -8 0 -8 -4 1 -15 10 -12 10 -15 0 -15 -10 0 -10 -3 0 -15 9 -11 22 -14 42
-10 16 4 34 2 41 -4 8 -6 18 -6 27 -1 13 8 12 10 -2 10 -20 0 -25 20 -5 20 9
0 8 3 -2 9 -7 5 -11 13 -7 19 3 5 -2 13 -12 17 -15 5 -15 8 -2 15 8 4 34 11
58 15 49 8 95 29 85 38 -3 4 -11 3 -17 -1 -29 -22 -143 -42 -132 -23 3 5 -1
11 -9 14 -9 4 -12 1 -8 -9 3 -9 -2 -14 -16 -14 -17 0 -21 5 -17 25 3 14 0 25
-5 25 -8 0 -13 -15 -10 -32 2 -12 -37 -10 -44 2 -3 6 0 10 7 10 10 0 10 2 -1
9 -7 5 -10 14 -7 20 4 6 3 11 -2 11 -5 0 -12 -14 -14 -30z"/>
<path d="M2772 1622 c-17 -19 -31 -37 -29 -38 7 -7 70 53 66 63 -2 5 -19 -6
-37 -25z"/>
<path d="M43 1643 c-47 -5 -60 -23 -15 -23 37 0 72 10 72 21 0 5 -3 8 -7 7 -5
-1 -27 -3 -50 -5z"/>
<path d="M1875 1640 c-3 -5 6 -12 20 -16 31 -8 42 -32 43 -91 1 -52 18 -118
36 -136 10 -9 11 -19 4 -30 -7 -14 -4 -19 17 -27 14 -5 35 -26 47 -45 11 -20
35 -46 53 -58 41 -28 76 -70 104 -125 25 -50 18 -77 -11 -41 l-19 24 16 -34
c11 -22 13 -37 7 -43 -7 -7 -13 -2 -17 13 -7 22 -8 21 -19 -11 -6 -19 -18 -35
-26 -36 -8 0 -22 -4 -31 -8 -21 -9 -68 9 -99 39 -29 27 -80 50 -80 35 0 -5 12
-17 28 -27 15 -10 39 -31 54 -46 27 -28 30 -29 90 -22 72 8 78 12 115 71 22
35 32 42 49 38 19 -5 23 0 29 28 4 18 16 59 28 91 22 58 22 58 57 52 23 -4 42
-1 55 9 11 9 22 16 25 16 3 0 4 -33 3 -72 -2 -40 -4 -144 -6 -230 -3 -146 -2
-158 15 -158 20 0 23 21 8 51 -8 13 -8 25 0 37 9 15 10 14 8 -7 -2 -13 2 -26
8 -28 15 -5 23 61 11 82 -5 9 -10 109 -13 223 -3 141 -8 206 -15 204 -6 -1 -9
3 -7 10 3 7 14 14 26 16 12 2 27 12 32 23 14 25 26 24 33 -1 6 -22 41 -28 53
-9 11 19 -17 57 -45 61 -14 2 -39 1 -56 -3 -16 -4 -23 -7 -16 -8 11 -1 12 -4
4 -12 -12 -12 -44 -5 -42 8 3 20 -3 23 -22 13 -24 -13 -73 -5 -63 11 3 6 -3 5
-14 -2 -16 -10 -18 -16 -10 -26 6 -8 19 -11 29 -8 14 5 19 1 19 -10 0 -12 6
-16 18 -12 9 2 23 6 31 8 7 2 15 -4 16 -13 2 -10 0 -18 -4 -18 -4 0 -6 -24 -3
-53 5 -64 -12 -87 -63 -87 -43 0 -50 12 -30 47 l16 28 -4 -32 c-2 -18 0 -33 4
-33 12 0 20 35 13 53 -3 9 4 30 17 48 19 27 20 31 6 26 -11 -4 -20 -1 -23 8
-4 8 -17 15 -31 15 l-25 0 22 -18 c22 -17 22 -19 6 -49 -8 -17 -25 -58 -37
-90 -12 -32 -30 -77 -40 -100 -11 -23 -18 -46 -17 -50 3 -8 -5 -13 -21 -13 -5
0 -28 30 -52 67 -24 37 -74 99 -111 137 -38 38 -68 77 -68 86 0 10 -6 20 -14
23 -16 6 -36 81 -36 137 0 62 -30 110 -70 110 -5 0 -12 -4 -15 -10z m604 -647
c0 -53 -3 -80 -8 -68 -7 19 -3 155 5 155 2 0 4 -39 3 -87z"/>
<path d="M2251 1636 c-10 -12 -7 -18 19 -31 34 -18 50 -14 32 7 -6 7 -10 18
-11 23 0 16 -27 17 -40 1z"/>
<path d="M2160 1615 c0 -8 9 -15 20 -15 11 0 20 7 20 15 0 8 -9 15 -20 15 -11
0 -20 -7 -20 -15z"/>
<path d="M862 1591 c-37 -39 -40 -50 -12 -48 12 1 18 7 16 14 -3 7 4 19 16 27
11 8 18 20 16 28 -3 9 -15 2 -36 -21z"/>
<path d="M90 1601 c0 -6 4 -12 9 -15 13 -8 42 4 35 15 -7 12 -44 12 -44 0z"/>
<path d="M2674 1590 c-5 -5 -27 -12 -49 -16 -42 -6 -82 -23 -56 -24 7 0 11 -6
7 -15 -3 -8 -1 -15 5 -15 6 0 9 -7 5 -15 -4 -11 1 -15 17 -14 12 0 16 3 10 6
-20 7 -15 19 11 31 17 8 26 8 28 0 2 -6 9 -3 17 6 12 14 12 16 -3 10 -26 -10
-19 12 12 35 15 11 22 21 17 21 -6 0 -15 -4 -21 -10z m-34 -39 c0 -12 -39 -25
-48 -16 -7 7 17 25 36 25 6 0 12 -4 12 -9z"/>
<path d="M2253 1575 c-23 -10 -38 -33 -28 -44 3 -3 9 0 13 6 4 7 17 16 29 20
12 5 19 13 15 18 -5 7 -14 7 -29 0z"/>
<path d="M50 1551 c-14 -27 -13 -31 9 -31 12 0 20 9 23 25 6 30 -16 34 -32 6z"/>
<path d="M2010 1551 c0 -15 31 -42 43 -38 18 6 20 27 3 27 -9 0 -16 5 -16 10
0 6 -7 10 -15 10 -8 0 -15 -4 -15 -9z"/>
<path d="M140 1520 c-11 -7 -6 -10 20 -10 19 0 42 5 50 10 11 7 6 10 -20 10
-19 0 -42 -5 -50 -10z"/>
<path d="M2183 1467 c-39 -55 -83 -134 -83 -150 1 -16 39 34 40 51 0 6 3 12 8
12 9 0 76 120 70 126 -3 2 -18 -15 -35 -39z"/>
<path d="M320 1485 c0 -8 6 -15 14 -15 7 0 19 7 26 15 11 13 8 15 -14 15 -16
0 -26 -5 -26 -15z"/>
<path d="M805 1470 c-12 -14 -19 -38 -20 -78 -3 -67 -12 -162 -27 -286 -5 -49
-11 -100 -13 -113 -1 -12 1 -23 6 -23 9 0 18 40 24 110 4 45 18 175 30 280 4
30 11 70 15 89 12 43 8 47 -15 21z"/>
<path d="M463 1403 c-22 -8 -14 -23 13 -23 15 0 24 5 22 12 -5 14 -18 18 -35
11z"/>
<path d="M330 1391 c0 -5 -10 -12 -22 -16 -21 -6 -21 -8 -4 -12 10 -3 22 1 27
8 6 11 11 10 23 -6 14 -19 15 -19 22 -1 4 11 2 21 -7 27 -18 11 -39 11 -39 0z"/>
<path d="M2910 1341 c0 -19 23 -35 34 -24 11 11 6 22 -14 33 -17 9 -20 8 -20
-9z"/>
<path d="M2681 1303 c-8 -14 -11 -15 -25 -4 -19 16 -31 9 -23 -14 4 -9 19 -15
38 -15 22 0 30 4 26 14 -3 7 0 19 6 25 8 8 8 11 -1 11 -6 0 -15 -8 -21 -17z"/>
<path d="M671 1188 c0 -14 -4 -33 -7 -42 -7 -18 12 -21 49 -7 19 8 23 15 20
35 -3 14 -9 24 -13 21 -5 -3 -6 -14 -3 -24 4 -16 1 -19 -15 -14 -13 3 -22 15
-25 32 l-4 26 -2 -27z"/>
<path d="M260 1160 c-12 -8 -10 -10 10 -9 14 0 34 4 45 9 17 7 16 9 -10 9 -16
0 -37 -4 -45 -9z"/>
<path d="M1884 1028 c-6 -13 -9 -32 -8 -43 1 -11 4 -57 8 -102 3 -46 12 -95
20 -111 22 -43 30 -100 16 -117 -8 -10 -11 -32 -6 -68 7 -63 25 -242 28 -290
2 -19 7 -33 12 -30 5 3 6 33 2 67 -26 246 -27 298 -10 334 17 36 16 37 -11 90
-25 47 -28 65 -31 169 -2 63 -5 117 -7 119 -2 2 -8 -6 -13 -18z"/>
<path d="M2070 926 c-19 -6 -40 -14 -47 -19 -6 -4 -18 -4 -27 -1 -11 4 -16 1
-16 -10 0 -21 14 -20 47 1 14 9 44 18 67 19 69 3 73 5 51 14 -25 11 -32 11
-75 -4z"/>
<path d="M974 879 c-19 -37 -44 -187 -44 -266 0 -28 -4 -62 -8 -75 -10 -25 3
-88 17 -88 5 0 9 17 9 38 1 115 13 206 32 230 11 13 20 29 20 35 0 6 6 18 13
26 8 10 11 32 7 61 l-5 45 -8 -45 c-13 -75 -27 -120 -38 -120 -11 0 -6 40 17
130 16 64 12 74 -12 29z"/>
<path d="M728 850 c-3 -32 -2 -58 4 -61 6 -4 6 -9 -2 -14 -16 -10 -7 -290 11
-311 9 -11 9 -23 0 -54 -9 -30 -9 -45 0 -61 6 -12 9 -34 7 -50 -3 -18 0 -29 7
-29 6 0 22 -14 34 -31 26 -34 75 -59 120 -59 l29 0 -5 -67 c-2 -38 -5 -78 -7
-90 -2 -17 2 -23 15 -23 16 0 19 8 18 58 -1 62 -15 176 -18 152 -2 -8 -11 2
-21 24 -10 21 -20 33 -24 27 -4 -6 -2 -20 4 -31 17 -32 -12 -25 -69 15 -43 31
-50 41 -56 83 -7 42 -15 149 -17 210 0 12 -4 22 -8 22 -4 0 -10 11 -12 25 -3
14 -1 25 3 25 13 0 11 74 -2 87 -7 7 -7 22 0 50 7 24 8 62 3 99 l-8 59 -6 -55z"/>
<path d="M381 855 c-11 -20 -21 -43 -21 -51 0 -9 -8 -14 -17 -13 -27 3 -85
-13 -76 -21 4 -3 32 -5 61 -2 51 4 52 5 52 36 0 17 7 42 16 54 9 13 14 25 11
28 -2 3 -14 -11 -26 -31z"/>
<path d="M1041 867 c-8 -11 -6 -18 10 -33 20 -18 20 -18 13 11 -9 38 -9 38
-23 22z"/>
<path d="M1025 698 c1 -18 3 -49 5 -68 3 -31 4 -30 9 15 5 44 9 50 29 49 29
-1 28 2 -8 21 -38 19 -36 20 -35 -17z"/>
<path d="M2783 685 c4 -9 7 -18 7 -19 0 -1 13 -1 29 2 16 2 31 -1 35 -6 3 -6
15 -8 27 -5 28 8 5 23 -34 23 -16 0 -38 5 -49 11 -18 10 -20 9 -15 -6z"/>
<path d="M992 664 c-1 -12 -6 -66 -12 -120 -6 -57 -6 -112 -1 -129 7 -25 9
-16 15 55 4 47 6 114 4 150 -2 36 -5 55 -6 44z"/>
<path d="M2506 558 c9 -32 9 -32 39 -4 l28 26 -37 0 c-34 0 -37 -2 -30 -22z"/>
<path d="M2442 548 c-20 -20 -13 -28 26 -28 25 0 33 3 23 9 -7 5 -10 14 -7 20
10 15 -27 14 -42 -1z"/>
<path d="M1060 322 c0 -44 4 -72 11 -72 6 0 8 23 4 68 -9 90 -15 91 -15 4z"/>
<path d="M60 330 c-44 -7 -43 -7 20 -8 36 -1 72 3 80 8 18 11 -27 11 -100 0z"/>
<path d="M2907 330 c14 -12 100 -23 87 -10 -5 5 -29 12 -53 14 -23 2 -39 0
-34 -4z"/>
<path d="M982 180 c-1 -52 3 -102 8 -110 11 -18 12 40 0 140 l-7 65 -1 -95z"/>
<path d="M1407 258 c-8 -22 -6 -171 2 -218 6 -34 9 -11 9 93 1 75 0 137 -2
137 -2 0 -6 -6 -9 -12z"/>
<path d="M2277 190 c10 -8 85 -30 103 -30 29 0 -5 15 -56 26 -30 6 -51 8 -47
4z"/>
<path d="M485 170 c-4 -6 -15 -8 -26 -5 -10 4 -19 2 -19 -3 0 -6 5 -12 12 -14
15 -5 1 -28 -17 -28 -9 0 -12 6 -8 18 6 16 5 16 -14 0 -11 -10 -25 -18 -31
-18 -7 0 -12 -7 -12 -15 0 -8 6 -12 13 -10 11 5 62 14 95 17 6 1 11 6 10 12 0
6 2 19 7 29 8 20 1 34 -10 17z"/>
<path d="M2215 149 c69 -23 130 -34 122 -22 -6 10 -35 16 -117 28 l-35 5 30
-11z"/>
<path d="M510 139 c0 -5 6 -12 14 -15 8 -3 12 -12 9 -20 -4 -10 0 -12 11 -8
18 7 19 13 8 30 -10 15 -42 25 -42 13z"/>
<path d="M714 96 c11 -9 34 -16 52 -16 18 0 41 -3 51 -6 15 -5 15 -4 3 5 -8 6
-30 11 -48 11 -18 0 -43 5 -55 11 -21 10 -21 10 -3 -5z"/>
</g>
</svg>
